<?xml version="1.0" encoding="utf-8"?>
<!-- Generator: Adobe Illustrator 16.0.0, SVG Export Plug-In . SVG Version: 6.00 Build 0)  -->
<!DOCTYPE svg PUBLIC "-//W3C//DTD SVG 1.1//EN" "http://www.w3.org/Graphics/SVG/1.1/DTD/svg11.dtd">
<svg version="1.1" id="Layer_1" xmlns="http://www.w3.org/2000/svg" xmlns:xlink="http://www.w3.org/1999/xlink" x="0px" y="0px"
	 width="960px" height="560px" viewBox="0 0 960 560" enable-background="new 0 0 960 560" xml:space="preserve">
<rect x="0.5" y="0.5" fill="#0090BF" stroke="#0090BF" stroke-miterlimit="10" width="134" height="30"/>
<g>
	<path fill="#FFFFFF" d="M31.546,9.259h1.961v8.236h3.796v1.541h-5.757V9.259z"/>
	<path fill="#FFFFFF" d="M44.163,18.63c-0.687,0.378-1.471,0.574-2.479,0.574c-2.382,0-3.769-1.373-3.769-3.74
		c0-2.087,1.107-3.81,3.349-3.81c2.675,0,3.432,1.835,3.432,4.356h-4.987c0.084,1.163,0.896,1.821,2.06,1.821
		c0.91,0,1.694-0.336,2.396-0.729V18.63z M42.902,14.722c-0.057-0.91-0.477-1.695-1.527-1.695c-1.05,0-1.583,0.729-1.667,1.695
		H42.902z"/>
	<path fill="#FFFFFF" d="M46.484,12.201c0.728-0.336,1.709-0.546,2.507-0.546c2.199,0,3.109,0.91,3.109,3.04v0.924
		c0,0.729,0.015,1.275,0.028,1.807c0.015,0.546,0.042,1.05,0.084,1.611h-1.652c-0.07-0.378-0.07-0.854-0.084-1.079h-0.028
		c-0.435,0.798-1.373,1.247-2.228,1.247c-1.274,0-2.521-0.771-2.521-2.143c0-1.079,0.519-1.709,1.233-2.059
		c0.714-0.35,1.639-0.42,2.423-0.42h1.037c0-1.163-0.519-1.555-1.625-1.555c-0.799,0-1.598,0.308-2.228,0.785L46.484,12.201z
		 M48.684,17.832c0.574,0,1.022-0.252,1.316-0.645c0.308-0.406,0.393-0.924,0.393-1.485H49.58c-0.841,0-2.088,0.14-2.088,1.247
		C47.492,17.566,48.011,17.832,48.684,17.832z"/>
	<path fill="#FFFFFF" d="M53.988,11.823h1.667v1.639h0.027c0.084-0.672,0.854-1.807,1.976-1.807c0.182,0,0.378,0,0.574,0.056v1.891
		c-0.168-0.098-0.504-0.154-0.841-0.154c-1.526,0-1.526,1.905-1.526,2.941v2.647h-1.877V11.823z"/>
	<path fill="#FFFFFF" d="M59.642,11.823h1.778v0.98h0.028c0.588-0.826,1.387-1.148,2.367-1.148c1.709,0,2.451,1.205,2.451,2.83
		v4.552H64.39v-3.852c0-0.882-0.014-2.073-1.219-2.073c-1.358,0-1.652,1.471-1.652,2.396v3.53h-1.877V11.823z"/>
	<path fill="#FFFFFF" d="M72.059,11.823h1.751v1.008h0.028c0.588-0.882,1.442-1.176,2.143-1.176c1.009,0,1.724,0.378,2.13,1.274
		c0.434-0.868,1.372-1.274,2.255-1.274c1.779,0,2.283,1.219,2.283,2.83v4.552h-1.877v-4.3c0-0.672,0-1.625-1.079-1.625
		c-1.246,0-1.4,1.485-1.4,2.423v3.502h-1.877v-4.3c0-0.672,0-1.625-1.079-1.625c-1.246,0-1.4,1.485-1.4,2.423v3.502h-1.877V11.823z"
		/>
	<path fill="#FFFFFF" d="M87.839,11.655c2.143,0,3.782,1.442,3.782,3.824c0,2.073-1.387,3.726-3.782,3.726
		c-2.382,0-3.769-1.653-3.769-3.726C84.07,13.097,85.71,11.655,87.839,11.655z M87.839,17.748c1.442,0,1.821-1.289,1.821-2.494
		c0-1.106-0.589-2.143-1.821-2.143c-1.219,0-1.807,1.064-1.807,2.143C86.032,16.445,86.41,17.748,87.839,17.748z"/>
	<path fill="#FFFFFF" d="M93.129,11.823h1.667v1.639h0.027c0.084-0.672,0.854-1.807,1.976-1.807c0.182,0,0.378,0,0.574,0.056v1.891
		c-0.168-0.098-0.504-0.154-0.841-0.154c-1.526,0-1.526,1.905-1.526,2.941v2.647h-1.877V11.823z"/>
	<path fill="#FFFFFF" d="M104.068,18.63c-0.687,0.378-1.471,0.574-2.479,0.574c-2.382,0-3.769-1.373-3.769-3.74
		c0-2.087,1.107-3.81,3.349-3.81c2.675,0,3.432,1.835,3.432,4.356h-4.987c0.084,1.163,0.896,1.821,2.06,1.821
		c0.91,0,1.695-0.336,2.396-0.729V18.63z M102.808,14.722c-0.057-0.91-0.477-1.695-1.527-1.695s-1.583,0.729-1.667,1.695H102.808z"
		/>
</g>
</svg>
