<svg version="1.1" id="Layer_1" xmlns="http://www.w3.org/2000/svg" xmlns:xlink="http://www.w3.org/1999/xlink" x="0px" y="0px"
	 width="960px" height="560px" viewBox="0 0 960 560" enable-background="new 0 0 960 560" xml:space="preserve">
<g id="Layer_2" display="none">
	<rect display="inline" fill="#C1272D" width="542" height="337"/>
</g>
<g>
	<rect fill="none" width="471.111" height="310.371"/>
	<path fill="#FFFFFF" d="M38.233,3.604c-2.759,0.36-3.119,0.68-4.319,4c-0.919,2.56-3.319,10.118-6.599,21.276h-1.24
		c-2.2-6.399-4.959-14.118-6.999-19.917h-0.08c-2.239,7.039-4.479,13.478-6.519,19.917h-1.24c-2.12-7.199-4.359-14.238-6.559-21.356
		c-1-3.279-1.6-3.599-4.04-3.919v-1.12h9.719v1.12c-2.919,0.36-3,0.68-2.4,2.72c1.56,5.399,3.12,10.798,4.879,16.477h0.08
		c2.12-6.799,4.439-13.397,6.479-19.917h1.16c2.24,6.559,4.559,13.038,6.999,19.917h0.08c1.68-5.319,3.879-13.158,4.52-15.997
		c0.56-2.4,0.4-2.84-2.76-3.2v-1.12h8.838V3.604z"/>
	<path fill="#FFFFFF" d="M50.438,28.479v-1.04c2.319-0.24,2.64-0.479,2.64-3.079v-6.639c0-3.279-1.24-4.919-3.919-4.919
		c-1.52,0-3.04,0.76-4.16,2.04v9.519c0,2.56,0.2,2.839,2.56,3.079v1.04H39.08v-1.04c2.4-0.2,2.76-0.44,2.76-3.079V5.283
		c0-2.52-0.08-2.719-2.72-2.959v-0.92c1.92-0.28,4.319-0.919,5.879-1.399v13.438c1.4-1.439,3.56-2.919,5.719-2.919
		c3.239,0,5.519,2.04,5.519,6.839v6.999c0,2.639,0.28,2.879,2.64,3.079v1.04H50.438z"/>
	<path fill="#FFFFFF" d="M75.357,25.08c-2.52,3.16-5.279,3.879-6.519,3.879c-4.919,0-7.798-4-7.798-8.519
		c0-2.76,1-5.199,2.639-6.999c1.64-1.839,3.799-2.919,5.879-2.919c3.319,0,5.999,2.959,5.999,6.079c0,0.8-0.2,1.12-0.92,1.28
		c-0.68,0.12-5.679,0.52-10.438,0.68c0.04,5.439,3.16,7.679,5.959,7.679c1.6,0,3.12-0.64,4.559-2L75.357,25.08z M64.399,16.921
		c2.239,0,4.439-0.04,6.759-0.12c0.72,0,0.96-0.24,0.96-0.8c0.04-2.08-1.32-3.999-3.52-3.999
		C66.759,12.002,64.999,13.682,64.399,16.921z"/>
	<path fill="#FFFFFF" d="M89.157,28.479v-1.04c2.36-0.24,2.64-0.56,2.64-3.319v-6.679c0-2.76-0.959-4.559-3.639-4.559
		c-1.6,0-3.16,1-4.359,2.04v9.398c0,2.719,0.24,2.879,2.6,3.119v1.04h-8.679v-1.04c2.72-0.28,2.919-0.479,2.919-3.119v-8.279
		c0-2.56-0.24-2.68-2.399-3.08v-0.919c1.92-0.36,3.799-0.84,5.559-1.64v3.2c0.8-0.6,1.68-1.2,2.68-1.88
		c1.12-0.72,2.16-1.2,3.319-1.2c3.16,0,5.159,2.2,5.159,6.079v7.719c0,2.719,0.2,2.879,2.52,3.119v1.04H89.157z"/>
	<path fill="#FFFFFF" d="M108.799,28.479v-1.04c2.52-0.24,2.799-0.479,2.799-3.199v-8.239c0-2.479-0.12-2.64-2.52-3.04v-0.959
		c2.04-0.32,3.919-0.84,5.679-1.56V24.24c0,2.72,0.28,2.959,2.839,3.199v1.04H108.799z M110.918,5.003c0-1.2,0.96-2.08,2.04-2.08
		c1.12,0,2,0.88,2,2.08c0,1.08-0.88,2.04-2.04,2.04C111.878,7.043,110.918,6.083,110.918,5.003z"/>
	<path fill="#FFFFFF" d="M130.836,28.479v-1.04c2.36-0.24,2.64-0.56,2.64-3.319v-6.679c0-2.76-0.959-4.559-3.639-4.559
		c-1.6,0-3.16,1-4.359,2.04v9.398c0,2.719,0.24,2.879,2.6,3.119v1.04h-8.679v-1.04c2.72-0.28,2.919-0.479,2.919-3.119v-8.279
		c0-2.56-0.24-2.68-2.399-3.08v-0.919c1.92-0.36,3.799-0.84,5.559-1.64v3.2c0.8-0.6,1.68-1.2,2.68-1.88
		c1.12-0.72,2.16-1.2,3.319-1.2c3.16,0,5.159,2.2,5.159,6.079v7.719c0,2.719,0.2,2.879,2.52,3.119v1.04H130.836z"/>
	<path fill="#FFFFFF" d="M156.276,24.88c-1.76,2.32-4.439,4.08-6.799,4.08c-5.039,0-7.999-4.08-7.999-8.359
		c0-3.079,1.32-5.759,4-7.838c2.08-1.6,4.479-2.24,6.039-2.24c1.6,0,2.919,0.52,3.56,1.04c0.52,0.44,0.64,0.8,0.64,1.24
		c0,0.84-0.88,1.72-1.32,1.72c-0.2,0-0.4-0.12-0.76-0.44c-1.2-1.12-2.6-1.64-4-1.64c-2.639,0-4.959,2.199-4.959,6.399
		c0,5.559,3.799,7.398,6.039,7.398c1.72,0,3.04-0.48,4.879-2.2L156.276,24.88z"/>
	<path fill="#FFFFFF" d="M175.795,19.441c0,6.439-4.719,9.519-8.679,9.519c-5.479,0-8.758-4.399-8.758-8.838
		c0-6.599,5.119-9.599,8.758-9.599C172.075,10.522,175.795,14.482,175.795,19.441z M162.077,18.841c0,5.039,2.2,8.798,5.479,8.798
		c2.479,0,4.519-1.84,4.519-7.319c0-4.679-1.879-8.479-5.359-8.479C164.237,11.842,162.077,14.322,162.077,18.841z"/>
	<path fill="#FFFFFF" d="M200.114,28.479v-1.04c2.36-0.24,2.8-0.4,2.8-3.239v-6.679c0-2.84-1-4.639-3.52-4.639
		c-1.44,0-2.959,0.8-4.479,2.08c0.08,0.48,0.12,0.92,0.12,1.68v7.798c0,2.52,0.36,2.76,2.56,3v1.04h-8.559v-1.04
		c2.479-0.24,2.84-0.44,2.84-3.079v-6.879c0-2.959-1.04-4.599-3.479-4.599c-1.6,0-3.16,1.08-4.359,2.08v9.398
		c0,2.6,0.32,2.839,2.28,3.079v1.04h-8.439v-1.04c2.64-0.24,3-0.479,3-3.079v-8.279c0-2.56-0.12-2.759-2.439-3.12v-0.919
		c1.76-0.32,3.799-0.84,5.559-1.64v3.24c0.84-0.56,1.72-1.28,2.919-2.04c1.04-0.64,2-1.08,3.28-1.08c1.919,0,3.639,1.2,4.439,3.279
		c1.16-0.88,2.32-1.64,3.319-2.239c0.84-0.56,1.88-1.04,3-1.04c3.12,0,5.079,2.2,5.079,6.119v7.719c0,2.679,0.32,2.839,2.6,3.079
		v1.04H200.114z"/>
	<path fill="#FFFFFF" d="M225.195,25.08c-2.52,3.16-5.279,3.879-6.519,3.879c-4.919,0-7.798-4-7.798-8.519
		c0-2.76,1-5.199,2.639-6.999c1.64-1.839,3.799-2.919,5.879-2.919c3.319,0,5.999,2.959,5.999,6.079c0,0.8-0.2,1.12-0.919,1.28
		c-0.68,0.12-5.679,0.52-10.438,0.68c0.04,5.439,3.16,7.679,5.959,7.679c1.6,0,3.12-0.64,4.559-2L225.195,25.08z M214.237,16.921
		c2.239,0,4.439-0.04,6.759-0.12c0.72,0,0.96-0.24,0.96-0.8c0.04-2.08-1.32-3.999-3.52-3.999
		C216.596,12.002,214.836,13.682,214.237,16.921z"/>
</g>
<g display="none">
	<rect display="inline" fill="none" width="471.111" height="310.371"/>
	<path display="inline" fill="#FFFFFF" d="M38.233,3.604c-2.759,0.36-3.119,0.68-4.319,4c-0.919,2.56-3.319,10.118-6.599,21.276
		h-1.24c-2.2-6.399-4.959-14.118-6.999-19.917h-0.08c-2.239,7.039-4.479,13.478-6.519,19.917h-1.24
		c-2.12-7.199-4.359-14.238-6.559-21.356c-1-3.279-1.6-3.599-4.04-3.919v-1.12h9.719v1.12c-2.919,0.36-3,0.68-2.4,2.72
		c1.56,5.399,3.12,10.798,4.879,16.477h0.08c2.12-6.799,4.439-13.397,6.479-19.917h1.16c2.24,6.559,4.559,13.038,6.999,19.917h0.08
		c1.68-5.319,3.879-13.158,4.52-15.997c0.56-2.4,0.4-2.84-2.76-3.2v-1.12h8.838V3.604z"/>
	<path display="inline" fill="#FFFFFF" d="M50.438,28.479v-1.04c2.319-0.24,2.64-0.479,2.64-3.079v-6.639
		c0-3.279-1.24-4.919-3.919-4.919c-1.52,0-3.04,0.76-4.16,2.04v9.519c0,2.56,0.2,2.839,2.56,3.079v1.04H39.08v-1.04
		c2.4-0.2,2.76-0.44,2.76-3.079V5.283c0-2.52-0.08-2.719-2.72-2.959v-0.92c1.92-0.28,4.319-0.919,5.879-1.399v13.438
		c1.4-1.439,3.56-2.919,5.719-2.919c3.239,0,5.519,2.04,5.519,6.839v6.999c0,2.639,0.28,2.879,2.64,3.079v1.04H50.438z"/>
	<path display="inline" fill="#FFFFFF" d="M75.357,25.08c-2.52,3.16-5.279,3.879-6.519,3.879c-4.919,0-7.798-4-7.798-8.519
		c0-2.76,1-5.199,2.639-6.999c1.64-1.839,3.799-2.919,5.879-2.919c3.319,0,5.999,2.959,5.999,6.079c0,0.8-0.2,1.12-0.92,1.28
		c-0.68,0.12-5.679,0.52-10.438,0.68c0.04,5.439,3.16,7.679,5.959,7.679c1.6,0,3.12-0.64,4.559-2L75.357,25.08z M64.399,16.921
		c2.239,0,4.439-0.04,6.759-0.12c0.72,0,0.96-0.24,0.96-0.8c0.04-2.08-1.32-3.999-3.52-3.999
		C66.759,12.002,64.999,13.682,64.399,16.921z"/>
	<path display="inline" fill="#FFFFFF" d="M89.157,28.479v-1.04c2.36-0.24,2.64-0.56,2.64-3.319v-6.679
		c0-2.76-0.959-4.559-3.639-4.559c-1.6,0-3.16,1-4.359,2.04v9.398c0,2.719,0.24,2.879,2.6,3.119v1.04h-8.679v-1.04
		c2.72-0.28,2.919-0.479,2.919-3.119v-8.279c0-2.56-0.24-2.68-2.399-3.08v-0.919c1.92-0.36,3.799-0.84,5.559-1.64v3.2
		c0.8-0.6,1.68-1.2,2.68-1.88c1.12-0.72,2.16-1.2,3.319-1.2c3.16,0,5.159,2.2,5.159,6.079v7.719c0,2.719,0.2,2.879,2.52,3.119v1.04
		H89.157z"/>
	<path display="inline" fill="#FFFFFF" d="M108.799,28.479v-1.04c2.52-0.24,2.799-0.479,2.799-3.199v-8.239
		c0-2.479-0.12-2.64-2.52-3.04v-0.959c2.04-0.32,3.919-0.84,5.679-1.56V24.24c0,2.72,0.28,2.959,2.839,3.199v1.04H108.799z
		 M110.918,5.003c0-1.2,0.96-2.08,2.04-2.08c1.12,0,2,0.88,2,2.08c0,1.08-0.88,2.04-2.04,2.04
		C111.878,7.043,110.918,6.083,110.918,5.003z"/>
	<path display="inline" fill="#FFFFFF" d="M130.836,28.479v-1.04c2.36-0.24,2.64-0.56,2.64-3.319v-6.679
		c0-2.76-0.959-4.559-3.639-4.559c-1.6,0-3.16,1-4.359,2.04v9.398c0,2.719,0.24,2.879,2.6,3.119v1.04h-8.679v-1.04
		c2.72-0.28,2.919-0.479,2.919-3.119v-8.279c0-2.56-0.24-2.68-2.399-3.08v-0.919c1.92-0.36,3.799-0.84,5.559-1.64v3.2
		c0.8-0.6,1.68-1.2,2.68-1.88c1.12-0.72,2.16-1.2,3.319-1.2c3.16,0,5.159,2.2,5.159,6.079v7.719c0,2.719,0.2,2.879,2.52,3.119v1.04
		H130.836z"/>
	<path display="inline" fill="#FFFFFF" d="M156.276,24.88c-1.76,2.32-4.439,4.08-6.799,4.08c-5.039,0-7.999-4.08-7.999-8.359
		c0-3.079,1.32-5.759,4-7.838c2.08-1.6,4.479-2.24,6.039-2.24c1.6,0,2.919,0.52,3.56,1.04c0.52,0.44,0.64,0.8,0.64,1.24
		c0,0.84-0.88,1.72-1.32,1.72c-0.2,0-0.4-0.12-0.76-0.44c-1.2-1.12-2.6-1.64-4-1.64c-2.639,0-4.959,2.199-4.959,6.399
		c0,5.559,3.799,7.398,6.039,7.398c1.72,0,3.04-0.48,4.879-2.2L156.276,24.88z"/>
	<path display="inline" fill="#FFFFFF" d="M175.795,19.441c0,6.439-4.719,9.519-8.679,9.519c-5.479,0-8.758-4.399-8.758-8.838
		c0-6.599,5.119-9.599,8.758-9.599C172.075,10.522,175.795,14.482,175.795,19.441z M162.077,18.841c0,5.039,2.2,8.798,5.479,8.798
		c2.479,0,4.519-1.84,4.519-7.319c0-4.679-1.879-8.479-5.359-8.479C164.237,11.842,162.077,14.322,162.077,18.841z"/>
	<path display="inline" fill="#FFFFFF" d="M200.114,28.479v-1.04c2.36-0.24,2.8-0.4,2.8-3.239v-6.679c0-2.84-1-4.639-3.52-4.639
		c-1.44,0-2.959,0.8-4.479,2.08c0.08,0.48,0.12,0.92,0.12,1.68v7.798c0,2.52,0.36,2.76,2.56,3v1.04h-8.559v-1.04
		c2.479-0.24,2.84-0.44,2.84-3.079v-6.879c0-2.959-1.04-4.599-3.479-4.599c-1.6,0-3.16,1.08-4.359,2.08v9.398
		c0,2.6,0.32,2.839,2.28,3.079v1.04h-8.439v-1.04c2.64-0.24,3-0.479,3-3.079v-8.279c0-2.56-0.12-2.759-2.439-3.12v-0.919
		c1.76-0.32,3.799-0.84,5.559-1.64v3.24c0.84-0.56,1.72-1.28,2.919-2.04c1.04-0.64,2-1.08,3.28-1.08c1.919,0,3.639,1.2,4.439,3.279
		c1.16-0.88,2.32-1.64,3.319-2.239c0.84-0.56,1.88-1.04,3-1.04c3.12,0,5.079,2.2,5.079,6.119v7.719c0,2.679,0.32,2.839,2.6,3.079
		v1.04H200.114z"/>
	<path display="inline" fill="#FFFFFF" d="M225.195,25.08c-2.52,3.16-5.279,3.879-6.519,3.879c-4.919,0-7.798-4-7.798-8.519
		c0-2.76,1-5.199,2.639-6.999c1.64-1.839,3.799-2.919,5.879-2.919c3.319,0,5.999,2.959,5.999,6.079c0,0.8-0.2,1.12-0.919,1.28
		c-0.68,0.12-5.679,0.52-10.438,0.68c0.04,5.439,3.16,7.679,5.959,7.679c1.6,0,3.12-0.64,4.559-2L225.195,25.08z M214.237,16.921
		c2.239,0,4.439-0.04,6.759-0.12c0.72,0,0.96-0.24,0.96-0.8c0.04-2.08-1.32-3.999-3.52-3.999
		C216.596,12.002,214.836,13.682,214.237,16.921z"/>
</g>

</svg>
