<?xml version="1.0" encoding="utf-8"?>
<!-- Generator: Adobe Illustrator 16.0.0, SVG Export Plug-In . SVG Version: 6.00 Build 0)  -->
<!DOCTYPE svg PUBLIC "-//W3C//DTD SVG 1.1//EN" "http://www.w3.org/Graphics/SVG/1.1/DTD/svg11.dtd">
<svg version="1.1" id="Layer_1" xmlns="http://www.w3.org/2000/svg" xmlns:xlink="http://www.w3.org/1999/xlink" x="0px" y="0px"
	 width="960px" height="560px" viewBox="0 0 960 560" enable-background="new 0 0 960 560" xml:space="preserve">
<g>
	<rect fill="none" width="471.111" height="310.371"/>
	<path fill="#FFFFFF" d="M1.28,28.479v-1.04c2.52-0.24,2.799-0.479,2.799-3.199v-8.239c0-2.479-0.12-2.64-2.52-3.04v-0.959
		c2.04-0.32,3.919-0.84,5.679-1.56V24.24c0,2.72,0.28,2.959,2.839,3.199v1.04H1.28z M3.399,5.003c0-1.2,0.96-2.08,2.04-2.08
		c1.12,0,2,0.88,2,2.08c0,1.08-0.88,2.04-2.04,2.04C4.359,7.043,3.399,6.083,3.399,5.003z"/>
	<path fill="#FFFFFF" d="M22.358,15.722c-0.76-2.36-2.16-3.959-4.119-3.959c-1.52,0-2.6,1.2-2.6,2.76c0,1.8,1.6,2.719,3.399,3.479
		c3,1.24,5.039,2.679,5.039,5.439c0,3.639-3.399,5.519-6.599,5.519c-2.04,0-3.879-0.76-4.599-1.36c-0.28-0.56-0.64-3.279-0.64-4.719
		l1.04-0.2c0.72,2.639,2.52,4.959,4.919,4.959c1.48,0,2.84-1.12,2.84-2.799c0-1.76-1.16-2.72-3.16-3.64
		c-2.399-1.12-4.999-2.439-4.999-5.519c0-2.799,2.399-5.159,6.079-5.159c1.64,0,2.72,0.36,3.56,0.68
		c0.32,0.919,0.76,3.279,0.88,4.279L22.358,15.722z"/>
	<path fill="#FFFFFF" d="M48.277,28.959c-0.6,0-1.439-0.36-1.879-0.76c-0.52-0.56-0.76-1.12-0.96-1.8
		c-1.6,1.08-3.52,2.56-4.719,2.56c-2.839,0-4.799-2.36-4.799-4.879c0-1.959,1.04-3.199,3.24-3.959c2.399-0.8,5.319-1.88,6.199-2.6
		v-0.72c0-2.879-1.36-4.519-3.359-4.519c-0.8,0-1.4,0.32-1.8,0.8c-0.52,0.52-0.88,1.4-1.2,2.64c-0.16,0.64-0.6,0.92-1.16,0.92
		c-0.72,0-1.76-0.8-1.76-1.72c0-0.6,0.52-1.04,1.28-1.6c1.12-0.8,3.719-2.36,5.999-2.8c1.2,0,2.399,0.36,3.279,1.08
		c1.4,1.16,1.8,2.799,1.8,4.879v7.439c0,1.799,0.72,2.399,1.4,2.399c0.48,0,1.04-0.2,1.439-0.44l0.4,1.04L48.277,28.959z
		 M45.357,18.881c-0.84,0.439-2.759,1.279-3.599,1.68c-1.56,0.72-2.44,1.479-2.44,2.919c0,2.08,1.6,3.08,2.84,3.08
		c1.04-0.04,2.439-0.72,3.199-1.44V18.881z"/>
	<path fill="#FFFFFF" d="M77.316,24.88c-1.76,2.32-4.439,4.08-6.799,4.08c-5.039,0-7.999-4.08-7.999-8.359
		c0-3.079,1.32-5.759,4-7.838c2.08-1.6,4.479-2.24,6.039-2.24c1.6,0,2.919,0.52,3.56,1.04c0.52,0.44,0.64,0.8,0.64,1.24
		c0,0.84-0.88,1.72-1.32,1.72c-0.2,0-0.4-0.12-0.76-0.44c-1.2-1.12-2.6-1.64-4-1.64c-2.639,0-4.959,2.199-4.959,6.399
		c0,5.559,3.799,7.398,6.039,7.398c1.72,0,3.04-0.48,4.879-2.2L77.316,24.88z"/>
	<path fill="#FFFFFF" d="M89.757,28.479v-1.04c2.319-0.24,2.64-0.479,2.64-3.079v-6.639c0-3.279-1.24-4.919-3.919-4.919
		c-1.52,0-3.04,0.76-4.16,2.04v9.519c0,2.56,0.2,2.839,2.56,3.079v1.04h-8.479v-1.04c2.4-0.2,2.76-0.44,2.76-3.079V5.283
		c0-2.52-0.08-2.719-2.72-2.959v-0.92c1.92-0.28,4.319-0.919,5.879-1.399v13.438c1.4-1.439,3.56-2.919,5.719-2.919
		c3.239,0,5.519,2.04,5.519,6.839v6.999c0,2.639,0.28,2.879,2.64,3.079v1.04H89.757z"/>
	<path fill="#FFFFFF" d="M112.836,28.959c-0.6,0-1.439-0.36-1.879-0.76c-0.52-0.56-0.76-1.12-0.96-1.8
		c-1.6,1.08-3.52,2.56-4.719,2.56c-2.839,0-4.799-2.36-4.799-4.879c0-1.959,1.04-3.199,3.24-3.959c2.399-0.8,5.319-1.88,6.199-2.6
		v-0.72c0-2.879-1.36-4.519-3.359-4.519c-0.8,0-1.4,0.32-1.8,0.8c-0.52,0.52-0.88,1.4-1.2,2.64c-0.16,0.64-0.6,0.92-1.16,0.92
		c-0.72,0-1.76-0.8-1.76-1.72c0-0.6,0.52-1.04,1.28-1.6c1.12-0.8,3.719-2.36,5.999-2.8c1.2,0,2.399,0.36,3.279,1.08
		c1.4,1.16,1.8,2.799,1.8,4.879v7.439c0,1.799,0.72,2.399,1.4,2.399c0.48,0,1.04-0.2,1.439-0.44l0.4,1.04L112.836,28.959z
		 M109.917,18.881c-0.84,0.439-2.759,1.279-3.599,1.68c-1.56,0.72-2.44,1.479-2.44,2.919c0,2.08,1.6,3.08,2.84,3.08
		c1.04-0.04,2.439-0.72,3.199-1.44V18.881z"/>
	<path fill="#FFFFFF" d="M117.279,28.479v-1.04c2.52-0.24,2.879-0.479,2.879-3.119V5.403c0-2.72-0.24-2.839-2.76-3.04v-0.96
		c2.08-0.24,4.56-0.919,5.919-1.399V24.32c0,2.64,0.32,2.879,2.88,3.119v1.04H117.279z"/>
	<path fill="#FFFFFF" d="M127.598,28.479v-1.04c2.52-0.24,2.879-0.479,2.879-3.119V5.403c0-2.72-0.24-2.839-2.76-3.04v-0.96
		c2.08-0.24,4.56-0.919,5.919-1.399V24.32c0,2.64,0.32,2.879,2.88,3.119v1.04H127.598z"/>
	<path fill="#FFFFFF" d="M152.915,25.08c-2.52,3.16-5.279,3.879-6.519,3.879c-4.919,0-7.798-4-7.798-8.519
		c0-2.76,1-5.199,2.639-6.999c1.64-1.839,3.799-2.919,5.879-2.919c3.319,0,5.999,2.959,5.999,6.079c0,0.8-0.2,1.12-0.919,1.28
		c-0.68,0.12-5.679,0.52-10.438,0.68c0.04,5.439,3.16,7.679,5.959,7.679c1.6,0,3.12-0.64,4.559-2L152.915,25.08z M141.957,16.921
		c2.239,0,4.439-0.04,6.759-0.12c0.72,0,0.96-0.24,0.96-0.8c0.04-2.08-1.32-3.999-3.52-3.999
		C144.316,12.002,142.556,13.682,141.957,16.921z"/>
	<path fill="#FFFFFF" d="M166.714,28.479v-1.04c2.36-0.24,2.64-0.56,2.64-3.319v-6.679c0-2.76-0.959-4.559-3.639-4.559
		c-1.6,0-3.16,1-4.359,2.04v9.398c0,2.719,0.24,2.879,2.6,3.119v1.04h-8.679v-1.04c2.72-0.28,2.919-0.479,2.919-3.119v-8.279
		c0-2.56-0.24-2.68-2.399-3.08v-0.919c1.92-0.36,3.799-0.84,5.559-1.64v3.2c0.8-0.6,1.68-1.2,2.68-1.88
		c1.12-0.72,2.16-1.2,3.319-1.2c3.16,0,5.159,2.2,5.159,6.079v7.719c0,2.719,0.2,2.879,2.52,3.119v1.04H166.714z"/>
	<path fill="#FFFFFF" d="M194.394,11.282c-0.36,0.64-1.16,1.68-1.8,2.04l-2.279-0.12c0.76,0.88,1.2,2.12,1.2,3.559
		c0,4.319-3.6,6.399-6.999,6.399c-0.68,0-1.399-0.12-2.04-0.2c-0.56,0.36-1.2,1.08-1.2,1.64c0,0.8,0.72,1.56,2.52,1.56
		c1.44,0,2.879-0.04,4.199-0.04c2.479,0,5.759,0.8,5.759,4.719c0,4.04-4.679,7.919-9.999,7.919c-4.439,0-6.879-2.6-6.919-4.879
		c0-0.88,0.36-1.64,0.96-2.239c0.8-0.8,2.36-2.08,3.319-2.8c-1.439-0.44-2.439-1.36-2.959-2.2c-0.36-0.6-0.48-1.28-0.44-1.68
		c1.6-0.6,2.879-1.64,3.52-2.439c-1.8-0.76-3.52-2.64-3.52-5.359c0-4.56,4.08-6.639,7.159-6.639c1.36,0,2.68,0.36,3.839,1
		c1.96-0.08,4-0.32,5.439-0.56L194.394,11.282z M181.836,29.799c-1.04,0.84-1.84,1.959-1.84,3.12c0,2.16,2.319,3.799,5.279,3.799
		c3.799,0,5.759-1.96,5.759-4.439c0-1.36-0.68-2.359-1.84-2.839c-1-0.4-2.16-0.52-3.839-0.52
		C183.436,28.919,182.556,29.159,181.836,29.799z M181.156,16.521c0,3.12,1.52,5.359,3.759,5.359c1.76-0.04,3.32-1.6,3.32-4.759
		c0-3.16-1.48-5.399-3.76-5.399C182.716,11.722,181.156,13.402,181.156,16.521z"/>
	<path fill="#FFFFFF" d="M209.874,25.08c-2.52,3.16-5.279,3.879-6.519,3.879c-4.919,0-7.798-4-7.798-8.519
		c0-2.76,1-5.199,2.639-6.999c1.64-1.839,3.799-2.919,5.879-2.919c3.319,0,5.999,2.959,5.999,6.079c0,0.8-0.2,1.12-0.919,1.28
		c-0.68,0.12-5.679,0.52-10.438,0.68c0.04,5.439,3.16,7.679,5.959,7.679c1.6,0,3.12-0.64,4.559-2L209.874,25.08z M198.916,16.921
		c2.239,0,4.439-0.04,6.759-0.12c0.72,0,0.96-0.24,0.96-0.8c0.04-2.08-1.32-3.999-3.52-3.999
		C201.275,12.002,199.515,13.682,198.916,16.921z"/>
</g>
<g>
</g>
<g>
</g>
<g>
</g>
<g>
</g>
<g>
</g>
<g>
</g>
<g>
</g>
<g>
</g>
<g>
</g>
<g>
</g>
<g>
</g>
<g>
</g>
<g>
</g>
<g>
</g>
<g>
</g>
</svg>
