<?xml version="1.0" encoding="utf-8"?>
<!-- Generator: Adobe Illustrator 16.0.0, SVG Export Plug-In . SVG Version: 6.00 Build 0)  -->
<!DOCTYPE svg PUBLIC "-//W3C//DTD SVG 1.1//EN" "http://www.w3.org/Graphics/SVG/1.1/DTD/svg11.dtd">
<svg version="1.1" id="Layer_1" xmlns="http://www.w3.org/2000/svg" xmlns:xlink="http://www.w3.org/1999/xlink" x="0px" y="0px"
	 width="960px" height="560px" viewBox="0 0 960 560" enable-background="new 0 0 960 560" xml:space="preserve">
<g id="Layer_2" display="none">
	<rect x="-24.5" y="-7.5" display="inline" fill="#1E0054" stroke="#000000" stroke-miterlimit="10" width="617" height="389"/>
</g>
<g id="_x31__we_help">
	<rect fill="none" width="471.111" height="310.371"/>
	<path fill="#FFFFFF" d="M27.835,12.002c-2,0.32-2.36,0.8-3.2,3c-1.2,3.159-2.959,8.479-4.799,13.917h-1.12
		c-1.6-4.319-3.239-8.239-4.879-12.438c-1.52,4-3.16,7.999-4.719,12.438h-1.16c-1.439-4.759-2.959-9.479-4.599-14.278
		c-0.72-2.08-1.08-2.359-3-2.639v-1h8.279v1c-2.4,0.4-2.6,0.64-2,2.439c0.92,3.08,1.92,6.239,2.92,9.318h0.08
		c1.48-3.839,2.959-7.958,4.64-12.558h1.04c1.48,4.159,3.12,8.398,4.799,12.678h0.08c0.88-2.76,2-6.239,2.719-9.199
		c0.52-2.08,0.28-2.319-2.319-2.679v-1h7.239V12.002z"/>
	<path fill="#FFFFFF" d="M42.877,25.08c-2.52,3.16-5.279,3.879-6.519,3.879c-4.919,0-7.798-4-7.798-8.519
		c0-2.76,1-5.199,2.639-6.999c1.64-1.839,3.799-2.919,5.879-2.919c3.319,0,5.999,2.959,5.999,6.079c0,0.8-0.2,1.12-0.919,1.28
		c-0.68,0.12-5.679,0.52-10.438,0.68c0.04,5.439,3.16,7.679,5.959,7.679c1.6,0,3.12-0.64,4.559-2L42.877,25.08z M31.919,16.921
		c2.239,0,4.439-0.04,6.759-0.12c0.72,0,0.96-0.24,0.96-0.8c0.04-2.08-1.32-3.999-3.52-3.999
		C34.279,12.002,32.519,13.682,31.919,16.921z"/>
	<path fill="#FFFFFF" d="M65.237,28.479v-1.04c2.319-0.24,2.64-0.479,2.64-3.079v-6.639c0-3.279-1.24-4.919-3.919-4.919
		c-1.52,0-3.04,0.76-4.16,2.04v9.519c0,2.56,0.2,2.839,2.56,3.079v1.04h-8.479v-1.04c2.4-0.2,2.76-0.44,2.76-3.079V5.283
		c0-2.52-0.08-2.719-2.72-2.959v-0.92c1.92-0.28,4.319-0.919,5.879-1.399v13.438c1.4-1.439,3.56-2.919,5.719-2.919
		c3.239,0,5.519,2.04,5.519,6.839v6.999c0,2.639,0.28,2.879,2.64,3.079v1.04H65.237z"/>
	<path fill="#FFFFFF" d="M90.157,25.08c-2.52,3.16-5.279,3.879-6.519,3.879c-4.919,0-7.798-4-7.798-8.519
		c0-2.76,1-5.199,2.639-6.999c1.64-1.839,3.799-2.919,5.879-2.919c3.319,0,5.999,2.959,5.999,6.079c0,0.8-0.2,1.12-0.919,1.28
		c-0.68,0.12-5.679,0.52-10.438,0.68c0.04,5.439,3.16,7.679,5.959,7.679c1.6,0,3.12-0.64,4.559-2L90.157,25.08z M79.199,16.921
		c2.239,0,4.439-0.04,6.759-0.12c0.72,0,0.96-0.24,0.96-0.8c0.04-2.08-1.32-3.999-3.52-3.999
		C81.558,12.002,79.798,13.682,79.199,16.921z"/>
	<path fill="#FFFFFF" d="M91.799,28.479v-1.04c2.52-0.24,2.879-0.479,2.879-3.119V5.403c0-2.72-0.24-2.839-2.76-3.04v-0.96
		c2.08-0.24,4.56-0.919,5.919-1.399V24.32c0,2.64,0.32,2.879,2.88,3.119v1.04H91.799z"/>
	<path fill="#FFFFFF" d="M111.277,11.123c0.72-0.4,1.479-0.6,1.959-0.6c4.439,0,7.079,3.6,7.079,7.559
		c0,6.039-4.759,9.918-9.958,10.878c-1.16-0.04-2.24-0.44-2.76-0.72v5.239c0,3.04,0.28,3.24,3.399,3.52v1.08h-9.479v-1.08
		c2.56-0.24,2.92-0.48,2.92-3.12V15.802c0-2.6-0.16-2.68-2.64-3v-0.96c1.68-0.28,3.919-0.96,5.799-1.72v3.16L111.277,11.123z
		 M107.598,25.44c0.88,0.92,2.4,1.56,3.759,1.56c3.359,0,5.599-2.879,5.599-7.398c0-4.279-2.439-6.679-5.359-6.679
		c-1.28,0-2.919,0.88-4,1.68V25.44z"/>
</g>
<g id="_x32__the_investor" display="none">
	<rect y="-48" display="inline" fill="none" width="471.111" height="310.371"/>
	<path display="inline" fill="#FFFFFF" d="M9.198,28.439c-0.68,0.36-1.319,0.52-1.68,0.52c-2.52,0-3.919-1.6-3.919-4.759V12.562
		H0.84l-0.16-0.4l1.08-1.16H3.6V8.083l2.599-2.64l0.56,0.08v5.479h4.52c0.36,0.4,0.24,1.28-0.24,1.56H6.759V22.84
		c0,3.24,1.32,3.839,2.32,3.839c1,0,1.919-0.4,2.479-0.68l0.36,1.04L9.198,28.439z"/>
	<path display="inline" fill="#FFFFFF" d="M24.518,28.479v-1.04c2.319-0.24,2.64-0.479,2.64-3.079v-6.639
		c0-3.279-1.24-4.919-3.919-4.919c-1.52,0-3.04,0.76-4.16,2.04v9.519c0,2.56,0.2,2.839,2.56,3.079v1.04h-8.479v-1.04
		c2.4-0.2,2.76-0.44,2.76-3.079V5.283c0-2.52-0.08-2.719-2.72-2.959v-0.92c1.92-0.28,4.319-0.919,5.879-1.399v13.438
		c1.4-1.439,3.56-2.919,5.719-2.919c3.239,0,5.519,2.04,5.519,6.839v6.999c0,2.639,0.28,2.879,2.64,3.079v1.04H24.518z"/>
	<path display="inline" fill="#FFFFFF" d="M49.437,25.08c-2.52,3.16-5.279,3.879-6.519,3.879c-4.919,0-7.798-4-7.798-8.519
		c0-2.76,1-5.199,2.639-6.999c1.64-1.839,3.799-2.919,5.879-2.919c3.319,0,5.999,2.959,5.999,6.079c0,0.8-0.2,1.12-0.919,1.28
		c-0.68,0.12-5.679,0.52-10.438,0.68c0.04,5.439,3.16,7.679,5.959,7.679c1.6,0,3.12-0.64,4.559-2L49.437,25.08z M38.479,16.921
		c2.239,0,4.439-0.04,6.759-0.12c0.72,0,0.96-0.24,0.96-0.8c0.04-2.08-1.32-3.999-3.52-3.999
		C40.838,12.002,39.079,13.682,38.479,16.921z"/>
	<path display="inline" fill="#FFFFFF" d="M60.999,28.479v-1.04c2.52-0.24,2.799-0.479,2.799-3.199v-8.239
		c0-2.479-0.12-2.64-2.52-3.04v-0.959c2.04-0.32,3.919-0.84,5.679-1.56V24.24c0,2.72,0.28,2.959,2.839,3.199v1.04H60.999z
		 M63.118,5.003c0-1.2,0.96-2.08,2.04-2.08c1.12,0,2,0.88,2,2.08c0,1.08-0.88,2.04-2.04,2.04
		C64.078,7.043,63.118,6.083,63.118,5.003z"/>
	<path display="inline" fill="#FFFFFF" d="M83.036,28.479v-1.04c2.36-0.24,2.64-0.56,2.64-3.319v-6.679
		c0-2.76-0.959-4.559-3.639-4.559c-1.6,0-3.16,1-4.359,2.04v9.398c0,2.719,0.24,2.879,2.6,3.119v1.04h-8.679v-1.04
		c2.72-0.28,2.919-0.479,2.919-3.119v-8.279c0-2.56-0.24-2.68-2.399-3.08v-0.919c1.92-0.36,3.799-0.84,5.559-1.64v3.2
		c0.8-0.6,1.68-1.2,2.68-1.88c1.12-0.72,2.16-1.2,3.319-1.2c3.16,0,5.159,2.2,5.159,6.079v7.719c0,2.719,0.2,2.879,2.52,3.119v1.04
		H83.036z"/>
	<path display="inline" fill="#FFFFFF" d="M110.475,12.002c-2.08,0.28-2.439,0.64-3.519,3.039c-1.32,3-3.439,7.919-5.639,13.878
		h-1.08c-1.799-4.799-3.639-9.358-5.519-13.998c-0.92-2.32-1.24-2.6-3.399-2.919v-1h8.199v1c-2.16,0.28-2.24,0.6-1.6,2.319
		c1.04,2.8,2.64,6.999,3.799,9.878c1.4-3.319,2.68-6.959,3.559-9.559c0.6-1.919,0.36-2.359-1.919-2.639v-1h7.119V12.002z"/>
	<path display="inline" fill="#FFFFFF" d="M125.396,25.08c-2.52,3.16-5.279,3.879-6.519,3.879c-4.919,0-7.798-4-7.798-8.519
		c0-2.76,1-5.199,2.639-6.999c1.64-1.839,3.799-2.919,5.879-2.919c3.319,0,5.999,2.959,5.999,6.079c0,0.8-0.2,1.12-0.919,1.28
		c-0.68,0.12-5.679,0.52-10.438,0.68c0.04,5.439,3.16,7.679,5.959,7.679c1.6,0,3.12-0.64,4.559-2L125.396,25.08z M114.438,16.921
		c2.239,0,4.439-0.04,6.759-0.12c0.72,0,0.96-0.24,0.96-0.8c0.04-2.08-1.32-3.999-3.52-3.999
		C116.797,12.002,115.038,13.682,114.438,16.921z"/>
	<path display="inline" fill="#FFFFFF" d="M138.356,15.722c-0.76-2.36-2.16-3.959-4.119-3.959c-1.52,0-2.6,1.2-2.6,2.76
		c0,1.8,1.6,2.719,3.399,3.479c3,1.24,5.039,2.679,5.039,5.439c0,3.639-3.399,5.519-6.599,5.519c-2.04,0-3.879-0.76-4.599-1.36
		c-0.28-0.56-0.64-3.279-0.64-4.719l1.04-0.2c0.72,2.639,2.52,4.959,4.919,4.959c1.48,0,2.84-1.12,2.84-2.799
		c0-1.76-1.16-2.72-3.16-3.64c-2.399-1.12-4.999-2.439-4.999-5.519c0-2.799,2.399-5.159,6.079-5.159c1.64,0,2.72,0.36,3.56,0.68
		c0.32,0.919,0.76,3.279,0.88,4.279L138.356,15.722z"/>
	<path display="inline" fill="#FFFFFF" d="M150.276,28.439c-0.68,0.36-1.319,0.52-1.68,0.52c-2.52,0-3.919-1.6-3.919-4.759V12.562
		h-2.76l-0.16-0.4l1.08-1.16h1.84V8.083l2.599-2.64l0.56,0.08v5.479h4.52c0.36,0.4,0.24,1.28-0.24,1.56h-4.279V22.84
		c0,3.24,1.32,3.839,2.32,3.839c1,0,1.919-0.4,2.479-0.68l0.36,1.04L150.276,28.439z"/>
	<path display="inline" fill="#FFFFFF" d="M171.955,19.441c0,6.439-4.719,9.519-8.679,9.519c-5.479,0-8.758-4.399-8.758-8.838
		c0-6.599,5.119-9.599,8.758-9.599C168.235,10.522,171.955,14.482,171.955,19.441z M158.237,18.841c0,5.039,2.2,8.798,5.479,8.798
		c2.479,0,4.519-1.84,4.519-7.319c0-4.679-1.879-8.479-5.359-8.479C160.397,11.842,158.237,14.322,158.237,18.841z"/>
	<path display="inline" fill="#FFFFFF" d="M180.277,14.762c1.2-2,2.919-4.239,4.839-4.239c1.359,0,2.319,1.04,2.319,2
		c0,0.8-0.52,1.6-1.28,1.96c-0.48,0.2-0.84,0.16-1.08-0.08c-0.56-0.6-1.04-0.84-1.68-0.84c-1.04,0-2.32,1.2-3.2,3.439v7.319
		c0,2.64,0.2,2.879,3.279,3.119v1.04h-9.198v-1.04c2.479-0.24,2.759-0.479,2.759-3.119v-8.279c0-2.64-0.2-2.799-2.479-3.12v-0.879
		c1.96-0.32,3.72-0.8,5.639-1.64v4.359H180.277z"/>
</g>
<g id="_x33__we_help_the_investor_prevail." display="none">
	<rect y="-96" display="inline" fill="none" width="471.111" height="310.371"/>
	<path display="inline" fill="#FFFFFF" d="M27.835-83.998c-2,0.32-2.36,0.8-3.2,3c-1.2,3.159-2.959,8.479-4.799,13.917h-1.12
		c-1.6-4.319-3.239-8.239-4.879-12.438c-1.52,4-3.16,7.999-4.719,12.438h-1.16c-1.439-4.759-2.959-9.479-4.599-14.278
		c-0.72-2.08-1.08-2.359-3-2.639v-1h8.279v1c-2.4,0.4-2.6,0.64-2,2.439c0.92,3.08,1.92,6.239,2.92,9.318h0.08
		c1.48-3.839,2.959-7.958,4.64-12.558h1.04c1.48,4.159,3.12,8.398,4.799,12.678h0.08c0.88-2.76,2-6.239,2.719-9.199
		c0.52-2.08,0.28-2.319-2.319-2.679v-1h7.239V-83.998z"/>
	<path display="inline" fill="#FFFFFF" d="M42.877-70.92c-2.52,3.16-5.279,3.879-6.519,3.879c-4.919,0-7.798-4-7.798-8.519
		c0-2.76,1-5.199,2.639-6.999c1.64-1.839,3.799-2.919,5.879-2.919c3.319,0,5.999,2.959,5.999,6.079c0,0.8-0.2,1.12-0.919,1.28
		c-0.68,0.12-5.679,0.52-10.438,0.68c0.04,5.439,3.16,7.679,5.959,7.679c1.6,0,3.12-0.64,4.559-2L42.877-70.92z M31.919-79.079
		c2.239,0,4.439-0.04,6.759-0.12c0.72,0,0.96-0.24,0.96-0.8c0.04-2.08-1.32-3.999-3.52-3.999
		C34.279-83.998,32.519-82.318,31.919-79.079z"/>
	<path display="inline" fill="#FFFFFF" d="M65.237-67.521v-1.04c2.319-0.24,2.64-0.479,2.64-3.079v-6.639
		c0-3.279-1.24-4.919-3.919-4.919c-1.52,0-3.04,0.76-4.16,2.04v9.519c0,2.56,0.2,2.839,2.56,3.079v1.04h-8.479v-1.04
		c2.4-0.2,2.76-0.44,2.76-3.079v-19.077c0-2.52-0.08-2.719-2.72-2.959v-0.92c1.92-0.28,4.319-0.919,5.879-1.399v13.438
		c1.4-1.439,3.56-2.919,5.719-2.919c3.239,0,5.519,2.04,5.519,6.839v6.999c0,2.639,0.28,2.879,2.64,3.079v1.04H65.237z"/>
	<path display="inline" fill="#FFFFFF" d="M90.157-70.92c-2.52,3.16-5.279,3.879-6.519,3.879c-4.919,0-7.798-4-7.798-8.519
		c0-2.76,1-5.199,2.639-6.999c1.64-1.839,3.799-2.919,5.879-2.919c3.319,0,5.999,2.959,5.999,6.079c0,0.8-0.2,1.12-0.919,1.28
		c-0.68,0.12-5.679,0.52-10.438,0.68c0.04,5.439,3.16,7.679,5.959,7.679c1.6,0,3.12-0.64,4.559-2L90.157-70.92z M79.199-79.079
		c2.239,0,4.439-0.04,6.759-0.12c0.72,0,0.96-0.24,0.96-0.8c0.04-2.08-1.32-3.999-3.52-3.999
		C81.558-83.998,79.798-82.318,79.199-79.079z"/>
	<path display="inline" fill="#FFFFFF" d="M91.799-67.521v-1.04c2.52-0.24,2.879-0.479,2.879-3.119v-18.917
		c0-2.72-0.24-2.839-2.76-3.04v-0.96c2.08-0.24,4.56-0.919,5.919-1.399v24.316c0,2.64,0.32,2.879,2.88,3.119v1.04H91.799z"/>
	<path display="inline" fill="#FFFFFF" d="M111.277-84.877c0.72-0.4,1.479-0.6,1.959-0.6c4.439,0,7.079,3.6,7.079,7.559
		c0,6.039-4.759,9.918-9.958,10.878c-1.16-0.04-2.24-0.44-2.76-0.72v5.239c0,3.04,0.28,3.24,3.399,3.52v1.08h-9.479v-1.08
		c2.56-0.24,2.92-0.48,2.92-3.12v-18.077c0-2.6-0.16-2.68-2.64-3v-0.96c1.68-0.28,3.919-0.96,5.799-1.72v3.16L111.277-84.877z
		 M107.598-70.56c0.88,0.92,2.4,1.56,3.759,1.56c3.359,0,5.599-2.879,5.599-7.398c0-4.279-2.439-6.679-5.359-6.679
		c-1.28,0-2.919,0.88-4,1.68V-70.56z"/>
	<path display="inline" fill="#FFFFFF" d="M9.198-19.561c-0.68,0.36-1.319,0.52-1.68,0.52c-2.52,0-3.919-1.6-3.919-4.759v-11.638
		H0.84l-0.16-0.4l1.08-1.16H3.6v-2.919l2.599-2.64l0.56,0.08v5.479h4.52c0.36,0.4,0.24,1.28-0.24,1.56H6.759v10.278
		c0,3.24,1.32,3.839,2.32,3.839c1,0,1.919-0.4,2.479-0.68l0.36,1.04L9.198-19.561z"/>
	<path display="inline" fill="#FFFFFF" d="M24.518-19.521v-1.04c2.319-0.24,2.64-0.479,2.64-3.079v-6.639
		c0-3.279-1.24-4.919-3.919-4.919c-1.52,0-3.04,0.76-4.16,2.04v9.519c0,2.56,0.2,2.839,2.56,3.079v1.04h-8.479v-1.04
		c2.4-0.2,2.76-0.44,2.76-3.079v-19.077c0-2.52-0.08-2.719-2.72-2.959v-0.92c1.92-0.28,4.319-0.919,5.879-1.399v13.438
		c1.4-1.439,3.56-2.919,5.719-2.919c3.239,0,5.519,2.04,5.519,6.839v6.999c0,2.639,0.28,2.879,2.64,3.079v1.04H24.518z"/>
	<path display="inline" fill="#FFFFFF" d="M49.437-22.92c-2.52,3.16-5.279,3.879-6.519,3.879c-4.919,0-7.798-4-7.798-8.519
		c0-2.76,1-5.199,2.639-6.999c1.64-1.839,3.799-2.919,5.879-2.919c3.319,0,5.999,2.959,5.999,6.079c0,0.8-0.2,1.12-0.919,1.28
		c-0.68,0.12-5.679,0.52-10.438,0.68c0.04,5.439,3.16,7.679,5.959,7.679c1.6,0,3.12-0.64,4.559-2L49.437-22.92z M38.479-31.079
		c2.239,0,4.439-0.04,6.759-0.12c0.72,0,0.96-0.24,0.96-0.8c0.04-2.08-1.32-3.999-3.52-3.999
		C40.838-35.998,39.079-34.318,38.479-31.079z"/>
	<path display="inline" fill="#FFFFFF" d="M60.999-19.521v-1.04c2.52-0.24,2.799-0.479,2.799-3.199v-8.239
		c0-2.479-0.12-2.64-2.52-3.04v-0.959c2.04-0.32,3.919-0.84,5.679-1.56v13.798c0,2.72,0.28,2.959,2.839,3.199v1.04H60.999z
		 M63.118-42.997c0-1.2,0.96-2.08,2.04-2.08c1.12,0,2,0.88,2,2.08c0,1.08-0.88,2.04-2.04,2.04
		C64.078-40.957,63.118-41.917,63.118-42.997z"/>
	<path display="inline" fill="#FFFFFF" d="M83.036-19.521v-1.04c2.36-0.24,2.64-0.56,2.64-3.319v-6.679
		c0-2.76-0.959-4.559-3.639-4.559c-1.6,0-3.16,1-4.359,2.04v9.398c0,2.719,0.24,2.879,2.6,3.119v1.04h-8.679v-1.04
		c2.72-0.28,2.919-0.479,2.919-3.119v-8.279c0-2.56-0.24-2.68-2.399-3.08v-0.919c1.92-0.36,3.799-0.84,5.559-1.64v3.2
		c0.8-0.6,1.68-1.2,2.68-1.88c1.12-0.72,2.16-1.2,3.319-1.2c3.16,0,5.159,2.2,5.159,6.079v7.719c0,2.719,0.2,2.879,2.52,3.119v1.04
		H83.036z"/>
	<path display="inline" fill="#FFFFFF" d="M110.475-35.998c-2.08,0.28-2.439,0.64-3.519,3.039c-1.32,3-3.439,7.919-5.639,13.878
		h-1.08c-1.799-4.799-3.639-9.358-5.519-13.998c-0.92-2.32-1.24-2.6-3.399-2.919v-1h8.199v1c-2.16,0.28-2.24,0.6-1.6,2.319
		c1.04,2.8,2.64,6.999,3.799,9.878c1.4-3.319,2.68-6.959,3.559-9.559c0.6-1.919,0.36-2.359-1.919-2.639v-1h7.119V-35.998z"/>
	<path display="inline" fill="#FFFFFF" d="M125.396-22.92c-2.52,3.16-5.279,3.879-6.519,3.879c-4.919,0-7.798-4-7.798-8.519
		c0-2.76,1-5.199,2.639-6.999c1.64-1.839,3.799-2.919,5.879-2.919c3.319,0,5.999,2.959,5.999,6.079c0,0.8-0.2,1.12-0.919,1.28
		c-0.68,0.12-5.679,0.52-10.438,0.68c0.04,5.439,3.16,7.679,5.959,7.679c1.6,0,3.12-0.64,4.559-2L125.396-22.92z M114.438-31.079
		c2.239,0,4.439-0.04,6.759-0.12c0.72,0,0.96-0.24,0.96-0.8c0.04-2.08-1.32-3.999-3.52-3.999
		C116.797-35.998,115.038-34.318,114.438-31.079z"/>
	<path display="inline" fill="#FFFFFF" d="M138.356-32.278c-0.76-2.36-2.16-3.959-4.119-3.959c-1.52,0-2.6,1.2-2.6,2.76
		c0,1.8,1.6,2.719,3.399,3.479c3,1.24,5.039,2.679,5.039,5.439c0,3.639-3.399,5.519-6.599,5.519c-2.04,0-3.879-0.76-4.599-1.36
		c-0.28-0.56-0.64-3.279-0.64-4.719l1.04-0.2c0.72,2.639,2.52,4.959,4.919,4.959c1.48,0,2.84-1.12,2.84-2.799
		c0-1.76-1.16-2.72-3.16-3.64c-2.399-1.12-4.999-2.439-4.999-5.519c0-2.799,2.399-5.159,6.079-5.159c1.64,0,2.72,0.36,3.56,0.68
		c0.32,0.919,0.76,3.279,0.88,4.279L138.356-32.278z"/>
	<path display="inline" fill="#FFFFFF" d="M150.276-19.561c-0.68,0.36-1.319,0.52-1.68,0.52c-2.52,0-3.919-1.6-3.919-4.759v-11.638
		h-2.76l-0.16-0.4l1.08-1.16h1.84v-2.919l2.599-2.64l0.56,0.08v5.479h4.52c0.36,0.4,0.24,1.28-0.24,1.56h-4.279v10.278
		c0,3.24,1.32,3.839,2.32,3.839c1,0,1.919-0.4,2.479-0.68l0.36,1.04L150.276-19.561z"/>
	<path display="inline" fill="#FFFFFF" d="M171.955-28.559c0,6.439-4.719,9.519-8.679,9.519c-5.479,0-8.758-4.399-8.758-8.838
		c0-6.599,5.119-9.599,8.758-9.599C168.235-37.478,171.955-33.518,171.955-28.559z M158.237-29.159c0,5.039,2.2,8.798,5.479,8.798
		c2.479,0,4.519-1.84,4.519-7.319c0-4.679-1.879-8.479-5.359-8.479C160.397-36.158,158.237-33.678,158.237-29.159z"/>
	<path display="inline" fill="#FFFFFF" d="M180.277-33.238c1.2-2,2.919-4.239,4.839-4.239c1.359,0,2.319,1.04,2.319,2
		c0,0.8-0.52,1.6-1.28,1.96c-0.48,0.2-0.84,0.16-1.08-0.08c-0.56-0.6-1.04-0.84-1.68-0.84c-1.04,0-2.32,1.2-3.2,3.439v7.319
		c0,2.64,0.2,2.879,3.279,3.119v1.04h-9.198v-1.04c2.479-0.24,2.759-0.479,2.759-3.119v-8.279c0-2.64-0.2-2.799-2.479-3.12v-0.879
		c1.96-0.32,3.72-0.8,5.639-1.64v4.359H180.277z"/>
	<path display="inline" fill="#FFFFFF" d="M10.438,11.123c0.72-0.4,1.479-0.6,1.959-0.6c4.439,0,7.079,3.6,7.079,7.559
		c0,6.039-4.759,9.918-9.958,10.878c-1.16-0.04-2.24-0.44-2.76-0.72v5.239c0,3.04,0.28,3.24,3.399,3.52v1.08H0.68v-1.08
		c2.56-0.24,2.92-0.48,2.92-3.12V15.802c0-2.6-0.16-2.68-2.64-3v-0.96c1.68-0.28,3.919-0.96,5.799-1.72v3.16L10.438,11.123z
		 M6.759,25.44c0.88,0.92,2.4,1.56,3.759,1.56c3.359,0,5.599-2.879,5.599-7.398c0-4.279-2.439-6.679-5.359-6.679
		c-1.28,0-2.919,0.88-4,1.68V25.44z"/>
	<path display="inline" fill="#FFFFFF" d="M27.798,14.762c1.2-2,2.919-4.239,4.839-4.239c1.359,0,2.319,1.04,2.319,2
		c0,0.8-0.52,1.6-1.28,1.96c-0.48,0.2-0.84,0.16-1.08-0.08c-0.56-0.6-1.04-0.84-1.68-0.84c-1.04,0-2.32,1.2-3.2,3.439v7.319
		c0,2.64,0.2,2.879,3.279,3.119v1.04h-9.198v-1.04c2.479-0.24,2.759-0.479,2.759-3.119v-8.279c0-2.64-0.2-2.799-2.479-3.12v-0.879
		c1.96-0.32,3.72-0.8,5.639-1.64v4.359H27.798z"/>
	<path display="inline" fill="#FFFFFF" d="M50.597,25.08c-2.52,3.16-5.279,3.879-6.519,3.879c-4.919,0-7.798-4-7.798-8.519
		c0-2.76,1-5.199,2.639-6.999c1.64-1.839,3.799-2.919,5.879-2.919c3.319,0,5.999,2.959,5.999,6.079c0,0.8-0.2,1.12-0.919,1.28
		c-0.68,0.12-5.679,0.52-10.438,0.68c0.04,5.439,3.16,7.679,5.959,7.679c1.6,0,3.12-0.64,4.559-2L50.597,25.08z M39.639,16.921
		c2.239,0,4.439-0.04,6.759-0.12c0.72,0,0.96-0.24,0.96-0.8c0.04-2.08-1.32-3.999-3.52-3.999
		C41.999,12.002,40.239,13.682,39.639,16.921z"/>
	<path display="inline" fill="#FFFFFF" d="M71.196,12.002c-2.08,0.28-2.439,0.64-3.519,3.039c-1.32,3-3.439,7.919-5.639,13.878
		h-1.08c-1.799-4.799-3.639-9.358-5.519-13.998c-0.92-2.32-1.24-2.6-3.399-2.919v-1h8.199v1c-2.16,0.28-2.24,0.6-1.6,2.319
		c1.04,2.8,2.64,6.999,3.799,9.878c1.4-3.319,2.68-6.959,3.559-9.559c0.6-1.919,0.36-2.359-1.919-2.639v-1h7.119V12.002z"/>
	<path display="inline" fill="#FFFFFF" d="M84.557,28.959c-0.6,0-1.439-0.36-1.879-0.76c-0.52-0.56-0.76-1.12-0.96-1.8
		c-1.6,1.08-3.52,2.56-4.719,2.56c-2.839,0-4.799-2.36-4.799-4.879c0-1.959,1.04-3.199,3.24-3.959c2.399-0.8,5.319-1.88,6.199-2.6
		v-0.72c0-2.879-1.36-4.519-3.359-4.519c-0.8,0-1.4,0.32-1.8,0.8c-0.52,0.52-0.88,1.4-1.2,2.64c-0.16,0.64-0.6,0.92-1.16,0.92
		c-0.72,0-1.76-0.8-1.76-1.72c0-0.6,0.52-1.04,1.28-1.6c1.12-0.8,3.719-2.36,5.999-2.8c1.2,0,2.399,0.36,3.279,1.08
		c1.4,1.16,1.8,2.799,1.8,4.879v7.439c0,1.799,0.72,2.399,1.4,2.399c0.48,0,1.04-0.2,1.439-0.44l0.4,1.04L84.557,28.959z
		 M81.637,18.881c-0.84,0.439-2.759,1.279-3.599,1.68c-1.56,0.72-2.44,1.479-2.44,2.919c0,2.08,1.6,3.08,2.84,3.08
		c1.04-0.04,2.439-0.72,3.199-1.44V18.881z"/>
	<path display="inline" fill="#FFFFFF" d="M89.119,28.479v-1.04c2.52-0.24,2.799-0.479,2.799-3.199v-8.239
		c0-2.479-0.12-2.64-2.52-3.04v-0.959c2.04-0.32,3.919-0.84,5.679-1.56V24.24c0,2.72,0.28,2.959,2.839,3.199v1.04H89.119z
		 M91.238,5.003c0-1.2,0.96-2.08,2.04-2.08c1.12,0,2,0.88,2,2.08c0,1.08-0.88,2.04-2.04,2.04
		C92.198,7.043,91.238,6.083,91.238,5.003z"/>
	<path display="inline" fill="#FFFFFF" d="M99.358,28.479v-1.04c2.52-0.24,2.879-0.479,2.879-3.119V5.403
		c0-2.72-0.24-2.839-2.76-3.04v-0.96c2.08-0.24,4.56-0.919,5.919-1.399V24.32c0,2.64,0.32,2.879,2.88,3.119v1.04H99.358z"/>
	<path display="inline" fill="#FFFFFF" d="M110.958,26.64c0-1.28,0.959-2.279,2.239-2.279s2.24,1,2.24,2.279
		c0,1.4-0.96,2.32-2.24,2.32S110.958,28.04,110.958,26.64z"/>
</g>
<g>
</g>
<g>
</g>
<g>
</g>
<g>
</g>
<g>
</g>
<g>
</g>
<g>
</g>
<g>
</g>
<g>
</g>
<g>
</g>
<g>
</g>
<g>
</g>
<g>
</g>
<g>
</g>
<g>
</g>
</svg>
